<svg height="512pt" viewBox="0 0 512 512" width="512pt" xmlns="http://www.w3.org/2000/svg"><path d="m378.5 124.28125h115.28125v336.867188h-115.28125zm0 0" fill="#dfcdbd"/><path d="m436.558594 124.28125h57.222656v336.867188h-57.222656zm0 0" fill="#c8ad92"/><path d="m347 244.550781v17.507813h-310v-17.507813c0-24.230469 5.589844-47.171875 15.539062-67.621093 25.160157-51.679688 78.222657-87.378907 139.460938-87.378907 61.210938 0 114.25 35.667969 139.421875 87.308594 9.976563 20.460937 15.578125 43.441406 15.578125 67.691406zm0 0" fill="#ffa820"/><path d="m347 244.550781v17.507813h-155v-172.507813c61.210938 0 114.25 35.667969 139.421875 87.308594 9.976563 20.460937 15.578125 43.441406 15.578125 67.691406zm0 0" fill="#ff8700"/><path d="m37 232.058594h310v229.089844h-310zm0 0" fill="#dfcdbd"/><path d="m192 232.058594h155v229.089844h-155zm0 0" fill="#c8ad92"/><path d="m75 14.765625h30v30h-30zm0 0" fill="#9afbff"/><path d="m293.242188 39.835938h32.878906v32.878906h-32.878906zm0 0" fill="#55fbff"/><path d="m13 133.007812h30v30h-30zm0 0" fill="#9afbff"/><path d="m260.480469 356.871094v104.277344h-136.960938v-104.277344c0-37.761719 30.71875-68.480469 68.480469-68.480469s68.480469 30.71875 68.480469 68.480469zm0 0" fill="#ff8a00"/><path d="m177 46.109375h30v58.441406h-30zm0 0" fill="#ffa820"/><path d="m512 93.71875v60.5625h-150.878906v-60.5625c0-18.046875 11.699218-38.570312 34.769531-60.988281 15.800781-15.371094 31.4375-26.308594 32.097656-26.761719l8.570313-5.96875 8.570312 5.96875c.660156.453125 16.300782 11.390625 32.109375 26.761719 23.0625 22.417969 34.761719 42.941406 34.761719 60.988281zm0 0" fill="#ffa820"/><path d="m331.421875 176.859375-71.152344-.128906c-8.078125 16.871093-25.300781 28.167969-44.75 28.167969-8.449219 0-16.480469-2.128907-23.519531-5.929688-9.160156-4.9375-16.648438-12.699219-21.210938-22.238281l-118.25.199219c25.160157-51.679688 78.222657-87.378907 139.460938-87.378907 61.210938 0 114.25 35.667969 139.421875 87.308594zm0 0" fill="#cffcf9"/><path d="m192 46.109375h15v58.441406h-15zm0 0" fill="#ff8700"/><path d="m260.480469 356.871094v104.277344h-68.480469v-172.757813c37.761719 0 68.480469 30.71875 68.480469 68.480469zm0 0" fill="#bf6100"/><path d="m215.519531 204.898438c-8.449219 0-16.480469-2.128907-23.519531-5.929688v-109.417969c61.210938 0 114.25 35.667969 139.421875 87.308594l-71.152344-.128906c-8.078125 16.871093-25.300781 28.167969-44.75 28.167969zm0 0" fill="#9afbff"/><path d="m512 494.730469v16.75h-512v-16.75c0-26.46875 21.53125-48 48-48h416c26.46875 0 48 21.53125 48 48zm0 0" fill="#cffcf9"/><path d="m512 494.730469v16.75h-257.601562v-64.75h209.601562c26.46875 0 48 21.53125 48 48zm0 0" fill="#9afbff"/><path d="m512 93.71875v60.5625h-75.441406v-154.28125l8.570312 5.96875c.660156.453125 16.300782 11.390625 32.109375 26.761719 23.0625 22.417969 34.761719 42.941406 34.761719 60.988281zm0 0" fill="#ff8700"/></svg>